<svg width="32" height="32" viewBox="0 0 32 32" fill="none" xmlns="http://www.w3.org/2000/svg">
<path d="M16 0L29.8564 8V24L16 32L2.14359 24V8L16 0Z" fill="#FFD500"/>
<path d="M8 20.5V13.7694C8 13.4076 8.37243 13.1655 8.70307 13.3125L12.1236 14.8327C12.3422 14.9299 12.599 14.8585 12.7362 14.6625L15.5904 10.5852C15.7894 10.3008 16.2106 10.3008 16.4096 10.5852L19.2638 14.6625C19.401 14.8585 19.6578 14.9299 19.8764 14.8327L23.2969 13.3125C23.6276 13.1655 24 13.4076 24 13.7694V20.5C24 20.7761 23.7761 21 23.5 21H8.5C8.22386 21 8 20.7761 8 20.5Z" fill="white"/>
</svg>
