<svg width="284" height="179" viewBox="0 0 284 179" fill="none" xmlns="http://www.w3.org/2000/svg">
<rect x="92" y="29" width="100" height="150" fill="url(#paint0_linear_0_1)"/>
<rect y="63" width="92" height="116" fill="url(#paint1_linear_0_1)"/>
<rect x="192" y="97" width="92" height="82" fill="url(#paint2_linear_0_1)"/>
<path d="M107 0H177.5L192 29H92L107 0Z" fill="#FF69C3"/>
<path d="M15 34L92 34V63H0L15 34Z" fill="#FF69C3"/>
<path d="M180.629 68H269.011L284 97H180.629V68Z" fill="#FF69C3"/>
<path d="M146.622 82.808C146.622 83.256 146.409 83.48 145.982 83.48H140.702C140.275 83.48 140.062 83.256 140.062 82.808V65.624L138.014 66.936C137.715 67.1493 137.427 67.0853 137.15 66.744L134.654 62.808C134.398 62.4453 134.441 62.1573 134.782 61.944L140.19 58.36C140.361 58.2533 140.553 58.2 140.766 58.2H145.95C146.398 58.2 146.622 58.4027 146.622 58.808V82.808Z" fill="white"/>
<path d="M45.7899 106.536C45.6192 106.707 45.4699 106.845 45.3419 106.952C45.2139 107.037 45.0325 107.08 44.7979 107.08H38.2059C37.9925 107.08 37.8432 107.016 37.7579 106.888C37.6939 106.76 37.7152 106.611 37.8219 106.44C38.1845 105.821 38.6859 105.203 39.3259 104.584C39.9872 103.944 40.6805 103.315 41.4059 102.696C42.1525 102.056 42.9099 101.437 43.6779 100.84C44.4459 100.221 45.1392 99.624 45.7579 99.048C46.3765 98.4507 46.8779 97.8853 47.2619 97.352C47.6672 96.7973 47.8699 96.2747 47.8699 95.784C47.8699 95.4427 47.8379 95.1227 47.7739 94.824C47.7099 94.5253 47.5819 94.2587 47.3899 94.024C47.2192 93.7893 46.9845 93.608 46.6859 93.48C46.3872 93.3307 46.0032 93.256 45.5339 93.256C44.6805 93.256 44.0832 93.5547 43.7419 94.152C43.4219 94.7493 43.2619 95.5067 43.2619 96.424V96.904C43.2619 97.352 43.0485 97.576 42.6219 97.576H37.8859C37.4805 97.576 37.2672 97.3627 37.2459 96.936V96.648C37.2459 95.0907 37.4485 93.7573 37.8539 92.648C38.2805 91.5387 38.8672 90.632 39.6139 89.928C40.3605 89.224 41.2459 88.712 42.2699 88.392C43.3152 88.0507 44.4565 87.88 45.6939 87.88C46.8672 87.88 47.9445 88.04 48.9259 88.36C49.9285 88.6587 50.7925 89.128 51.5179 89.768C52.2645 90.3867 52.8405 91.1653 53.2459 92.104C53.6725 93.0427 53.8859 94.1413 53.8859 95.4C53.8859 96.6587 53.6085 97.7893 53.0539 98.792C52.5205 99.7947 51.8485 100.733 51.0379 101.608C50.2272 102.461 49.3419 103.283 48.3819 104.072C47.4432 104.861 46.5792 105.683 45.7899 106.536ZM53.4059 108.04C53.8112 108.04 54.0139 108.264 54.0139 108.712V112.84C54.0139 113.267 53.8112 113.48 53.4059 113.48H38.0459C37.6405 113.48 37.4379 113.267 37.4379 112.84V108.712C37.4379 108.264 37.6405 108.04 38.0459 108.04H53.4059Z" fill="white"/>
<path d="M235.742 129.016C235.294 129.016 235.07 128.803 235.07 128.376V125.24C235.07 124.813 235.294 124.6 235.742 124.6H236.318C237.385 124.557 238.185 124.323 238.718 123.896C239.251 123.448 239.518 122.744 239.518 121.784C239.518 121.443 239.486 121.123 239.422 120.824C239.358 120.525 239.23 120.259 239.038 120.024C238.867 119.789 238.622 119.608 238.302 119.48C237.982 119.331 237.577 119.256 237.086 119.256C236.19 119.256 235.582 119.555 235.262 120.152C234.942 120.749 234.782 121.507 234.782 122.424V122.904C234.782 123.352 234.569 123.576 234.142 123.576H229.246C228.841 123.576 228.627 123.363 228.606 122.936V122.648C228.606 121.091 228.819 119.757 229.246 118.648C229.673 117.539 230.27 116.632 231.038 115.928C231.806 115.224 232.713 114.712 233.758 114.392C234.825 114.051 235.987 113.88 237.246 113.88C238.441 113.88 239.539 114.04 240.542 114.36C241.566 114.659 242.451 115.128 243.198 115.768C243.945 116.387 244.531 117.165 244.958 118.104C245.385 119.043 245.598 120.141 245.598 121.4C245.555 122.552 245.363 123.565 245.022 124.44C244.702 125.315 244.265 126.04 243.71 126.616C244.627 127.213 245.299 128.013 245.726 129.016C246.174 129.997 246.398 131.117 246.398 132.376C246.398 133.635 246.163 134.733 245.694 135.672C245.246 136.611 244.627 137.4 243.838 138.04C243.07 138.659 242.153 139.117 241.086 139.416C240.041 139.736 238.921 139.896 237.726 139.896C236.467 139.896 235.283 139.747 234.174 139.448C233.065 139.171 232.094 138.701 231.262 138.04C230.43 137.357 229.769 136.483 229.278 135.416C228.809 134.349 228.574 133.027 228.574 131.448V131.16C228.595 130.733 228.809 130.52 229.214 130.52H234.11C234.537 130.52 234.75 130.744 234.75 131.192V131.672C234.75 132.589 234.995 133.293 235.486 133.784C235.977 134.275 236.67 134.52 237.566 134.52C238.569 134.52 239.273 134.275 239.678 133.784C240.105 133.272 240.318 132.675 240.318 131.992C240.318 130.115 239.113 129.123 236.702 129.016H235.742Z" fill="white"/>
<defs>
<linearGradient id="paint0_linear_0_1" x1="142" y1="29" x2="142" y2="179" gradientUnits="userSpaceOnUse">
<stop stop-color="#CB1F86"/>
<stop offset="1" stop-color="#FF69C3"/>
</linearGradient>
<linearGradient id="paint1_linear_0_1" x1="46" y1="63" x2="46" y2="179" gradientUnits="userSpaceOnUse">
<stop offset="0.567308" stop-color="#CB1F86"/>
<stop offset="1" stop-color="#FF69C3"/>
</linearGradient>
<linearGradient id="paint2_linear_0_1" x1="238" y1="97" x2="238" y2="179" gradientUnits="userSpaceOnUse">
<stop offset="0.567308" stop-color="#CB1F86"/>
<stop offset="1" stop-color="#FF69C3"/>
</linearGradient>
</defs>
</svg>
